<svg width="30" height="29" viewBox="0 0 30 29" fill="none" xmlns="http://www.w3.org/2000/svg">
<path fill-rule="evenodd" clip-rule="evenodd" d="M18.8667 0C18.0975 0 17.3599 0.305535 16.8161 0.84939C16.2722 1.39325 15.9667 2.13087 15.9667 2.9V5.8H3.4C2.63087 5.8 1.89325 6.10553 1.34939 6.64939C0.805535 7.19325 0.5 7.93087 0.5 8.7L0.5 20.3C0.5 21.0691 0.805535 21.8068 1.34939 22.3506C1.89325 22.8945 2.63087 23.2 3.4 23.2H12.1V27.0667H8.23333V29H26.6C27.3691 29 28.1068 28.6945 28.6506 28.1506C29.1945 27.6068 29.5 26.8691 29.5 26.1V2.9C29.5 2.13087 29.1945 1.39325 28.6506 0.84939C28.1068 0.305535 27.3691 0 26.6 0L18.8667 0ZM16.131 27.0667H14.0333V23.2H15.9667V26.1C15.9667 26.4383 16.0247 26.7651 16.131 27.0667ZM18.8667 27.0667H26.6C26.8564 27.0667 27.1023 26.9648 27.2835 26.7835C27.4648 26.6023 27.5667 26.3564 27.5667 26.1V11.6H17.9V26.1C17.9 26.3564 18.0018 26.6023 18.1831 26.7835C18.3644 26.9648 18.6103 27.0667 18.8667 27.0667ZM17.9 9.66667H27.5667V2.9C27.5667 2.64362 27.4648 2.39775 27.2835 2.21646C27.1023 2.03518 26.8564 1.93333 26.6 1.93333H18.8667C18.6103 1.93333 18.3644 2.03518 18.1831 2.21646C18.0018 2.39775 17.9 2.64362 17.9 2.9V9.66667Z" fill="white"/>
</svg>
