<svg width="30" height="29" viewBox="0 0 30 29" fill="none" xmlns="http://www.w3.org/2000/svg">
<path d="M24.9688 4.53125H5.03125C4.55055 4.53125 4.08953 4.72221 3.74962 5.06212C3.40971 5.40203 3.21875 5.86305 3.21875 6.34375V22.6562C3.21875 23.137 3.40971 23.598 3.74962 23.9379C4.08953 24.2778 4.55055 24.4688 5.03125 24.4688H24.9688C25.4495 24.4688 25.9105 24.2778 26.2504 23.9379C26.5903 23.598 26.7812 23.137 26.7812 22.6562V6.34375C26.7812 5.86305 26.5903 5.40203 26.2504 5.06212C25.9105 4.72221 25.4495 4.53125 24.9688 4.53125ZM11.0125 16.4938C11.2048 16.638 11.3319 16.8526 11.3659 17.0906C11.3999 17.3285 11.338 17.5702 11.1938 17.7625C11.0495 17.9548 10.8348 18.0819 10.5969 18.1159C10.359 18.1499 10.1173 18.088 9.925 17.9437L6.3 15.225C6.18745 15.1406 6.09609 15.0311 6.03318 14.9053C5.97026 14.7795 5.9375 14.6407 5.9375 14.5C5.9375 14.3593 5.97026 14.2206 6.03318 14.0947C6.09609 13.9689 6.18745 13.8594 6.3 13.775L9.925 11.0562C10.1173 10.912 10.359 10.8501 10.5969 10.8841C10.8348 10.9181 11.0495 11.0452 11.1938 11.2375C11.338 11.4298 11.3999 11.6715 11.3659 11.9094C11.3319 12.1473 11.2048 12.362 11.0125 12.5063L8.35379 14.5L11.0125 16.4938ZM17.6836 8.40547L14.0586 21.093C14.0277 21.2094 13.9739 21.3186 13.9004 21.414C13.8268 21.5094 13.7349 21.5892 13.6302 21.6487C13.5254 21.7081 13.4098 21.7461 13.2902 21.7604C13.1705 21.7747 13.0493 21.765 12.9334 21.7319C12.8176 21.6987 12.7095 21.6428 12.6155 21.5674C12.5216 21.492 12.4436 21.3987 12.3861 21.2928C12.3287 21.1868 12.2929 21.0706 12.2809 20.9507C12.2689 20.8308 12.281 20.7097 12.3164 20.5945L15.9414 7.90703C16.011 7.68017 16.1669 7.48969 16.3755 7.37652C16.5841 7.26335 16.8288 7.23652 17.0569 7.30179C17.2851 7.36707 17.4786 7.51924 17.5958 7.72561C17.7129 7.93198 17.7445 8.17608 17.6836 8.40547ZM23.7 15.225L20.075 17.9437C19.8827 18.088 19.641 18.1499 19.4031 18.1159C19.1651 18.0819 18.9505 17.9548 18.8063 17.7625C18.662 17.5702 18.6001 17.3285 18.6341 17.0906C18.6681 16.8526 18.7952 16.638 18.9875 16.4938L21.6462 14.5L18.9875 12.5063C18.8923 12.4348 18.8121 12.3454 18.7514 12.243C18.6908 12.1406 18.6509 12.0272 18.6341 11.9094C18.6173 11.7916 18.6238 11.6716 18.6534 11.5563C18.6829 11.441 18.7348 11.3327 18.8063 11.2375C18.8777 11.1423 18.9671 11.0621 19.0695 11.0014C19.1719 10.9408 19.2853 10.9009 19.4031 10.8841C19.5209 10.8673 19.6409 10.8738 19.7562 10.9034C19.8715 10.9329 19.9798 10.9848 20.075 11.0562L23.7 13.775C23.8126 13.8594 23.9039 13.9689 23.9668 14.0947C24.0297 14.2206 24.0625 14.3593 24.0625 14.5C24.0625 14.6407 24.0297 14.7795 23.9668 14.9053C23.9039 15.0311 23.8126 15.1406 23.7 15.225Z" fill="black"/>
</svg>
