<svg width="18" height="23" viewBox="0 0 18 23" fill="none" xmlns="http://www.w3.org/2000/svg">
<path d="M16.9355 4.7168L12.5377 0.314453C12.3355 0.112305 12.0615 0 11.774 0H11.5V5.75H17.25V5.47598C17.25 5.19297 17.1377 4.91895 16.9355 4.7168ZM5.76797 15.0938C4.96387 15.0938 4.3125 15.6373 4.3125 16.3066C4.3125 16.9805 4.96836 17.5195 5.77246 17.5195C6.57656 17.5195 7.22793 16.976 7.22793 16.3066C7.22793 15.6373 6.57207 15.0938 5.76797 15.0938ZM10.0625 6.10938V0H7.20547V1.4375H5.76797V0H1.07812C0.480664 0 0 0.480664 0 1.07812V21.9219C0 22.5193 0.480664 23 1.07812 23H16.1719C16.7693 23 17.25 22.5193 17.25 21.9219V7.1875H11.1406C10.5477 7.1875 10.0625 6.70234 10.0625 6.10938ZM4.30801 1.4375H5.74551V2.875H4.30801V1.4375ZM5.75898 18.6875C4.26758 18.6875 3.15352 17.3219 3.45 15.8619L4.33047 11.5V10.0625H5.76797V8.625H4.33047V7.1875H5.76797V5.75H4.33047V4.3125H5.76797V2.875H7.20547V4.3125H5.76797V5.75H7.20547V7.1875H5.76797V8.625H7.20547V10.0625H5.76797V11.5H6.76074C7.0168 11.5 7.24141 11.6842 7.29082 11.9357L8.06797 15.8754C8.35547 17.3309 7.24141 18.6875 5.75898 18.6875Z" fill="white"/>
</svg>
