<svg width="24" height="24" viewBox="0 0 24 24" fill="none" xmlns="http://www.w3.org/2000/svg">
<g clip-path="url(#clip0_1224_6634)">
<path d="M7.24845 17.2666C7.03357 17.2081 7.03357 17.2141 6.80032 17.1628V16.2174C7.11757 16.2485 7.34857 16.5005 7.34895 16.778L8.18895 16.7784C8.18895 16.1435 7.6602 15.5083 6.80032 15.3976V14.8955H5.99595V15.3976C5.1852 15.5049 4.6587 16.1098 4.6587 16.6486C4.6587 17.1928 5.0097 17.6195 5.5167 17.7594C5.71507 17.8138 5.81857 17.843 6.00345 17.8786V18.8866C5.63295 18.8105 5.44807 18.4918 5.44807 18.2518H4.59082C4.59082 18.7854 5.13795 19.6021 5.99595 19.7004V20.2381H6.80032V19.7004C7.68945 19.5841 8.2287 19.1214 8.2287 18.4468C8.2287 18.0076 8.04832 17.4841 7.24845 17.2666ZM5.99595 17.0154C5.63632 16.9513 5.53695 16.7975 5.53695 16.6318C5.53695 16.4383 5.7807 16.2515 5.99595 16.2264V17.0154ZM6.81007 18.8833V18.0313C7.1652 18.0823 7.3902 18.2349 7.3902 18.4543C7.3902 18.6481 7.18095 18.8694 6.81007 18.8833Z" fill="#757575"/>
<path d="M21.0273 0.206055H3.17171C1.53934 0.206055 0.209961 1.53543 0.209961 3.16931V21.0227C0.209961 22.6569 1.53934 23.9859 3.17171 23.9859H21.0273C22.6605 23.9859 23.9898 22.6569 23.9898 21.0227V3.16931C23.9898 1.5358 22.6605 0.206055 21.0273 0.206055ZM17.5305 3.26268C17.9073 3.26877 18.2667 3.42275 18.531 3.6914C18.7954 3.96005 18.9435 4.32185 18.9435 4.69874C18.9435 5.07564 18.7954 5.43744 18.531 5.70609C18.2667 5.97474 17.9073 6.12872 17.5305 6.1348C17.3419 6.13481 17.1552 6.09766 16.981 6.0255C16.8068 5.95333 16.6486 5.84756 16.5153 5.71422C16.382 5.58089 16.2762 5.42259 16.2041 5.24839C16.132 5.07418 16.0949 4.88747 16.095 4.69893C16.0949 4.51037 16.132 4.32364 16.2041 4.14942C16.2762 3.97519 16.382 3.81687 16.5153 3.6835C16.6486 3.55014 16.8068 3.44433 16.981 3.37212C17.1552 3.29992 17.3419 3.26273 17.5305 3.26268ZM6.92359 3.32681C7.29854 3.3269 7.65809 3.47595 7.92315 3.74115C8.18821 4.00635 8.33706 4.36598 8.33696 4.74093C8.33686 5.11588 8.18782 5.47543 7.92262 5.74049C7.65742 6.00555 7.29779 6.1544 6.92284 6.1543C6.54789 6.15421 6.18833 6.00516 5.92327 5.73996C5.65821 5.47476 5.50936 5.11513 5.50946 4.74018C5.50956 4.36523 5.6586 4.00568 5.9238 3.74062C6.189 3.47556 6.54864 3.32671 6.92359 3.32681ZM3.97271 8.09231C4.18571 7.38918 4.88134 6.64368 5.79334 6.64368H8.05384C8.96546 6.64368 9.66109 7.38918 9.87371 8.09268L10.671 10.9997H9.42821L8.76821 8.60268H8.21096L8.85484 10.9997H4.99234L5.63621 8.60268H5.07896L4.41859 10.9997H3.17584L3.97234 8.09268L3.97271 8.09231ZM6.40121 20.9297C5.50879 20.9297 4.65292 20.5752 4.02188 19.9441C3.39085 19.3131 3.03634 18.4572 3.03634 17.5648C3.03634 16.6724 3.39085 15.8165 4.02188 15.1855C4.65292 14.5544 5.50879 14.1999 6.40121 14.1999C7.29363 14.1999 8.1495 14.5544 8.78054 15.1855C9.41157 15.8165 9.76609 16.6724 9.76609 17.5648C9.76609 18.4572 9.41157 19.3131 8.78054 19.9441C8.1495 20.5752 7.29363 20.9297 6.40121 20.9297ZM21.1631 13.4319L19.4988 13.4327V20.0871C19.4978 20.3109 19.4082 20.5252 19.2495 20.6831C19.0907 20.841 18.8759 20.9295 18.6521 20.9293C18.4288 20.9291 18.2147 20.8403 18.0569 20.6824C17.899 20.5245 17.8103 20.3103 17.8102 20.0871V13.4334H17.2736V20.0871C17.2734 20.3105 17.1845 20.5247 17.0264 20.6827C16.8683 20.8406 16.654 20.9293 16.4306 20.9293C16.2068 20.9294 15.9922 20.8408 15.8336 20.683C15.675 20.5251 15.5855 20.3108 15.5846 20.0871V13.4338L3.03671 13.4376V11.8251H15.585V8.05143L12.9045 11.2254C12.3405 11.8768 11.3366 11.0631 11.9021 10.3667L14.6797 7.02956C14.8593 6.85068 15.0206 6.62943 15.6836 6.62943H19.0653C19.404 6.62933 19.7289 6.76375 19.9685 7.00313C20.2081 7.24251 20.3428 7.56725 20.343 7.90593L20.3407 11.8254H21.1635V13.4323L21.1631 13.4319Z" fill="#757575"/>
</g>
<defs>
<clipPath id="clip0_1224_6634">
<rect width="24" height="24" fill="white"/>
</clipPath>
</defs>
</svg>
