<svg width="24" height="24" viewBox="0 0 24 24" fill="none" xmlns="http://www.w3.org/2000/svg">
<path fill-rule="evenodd" clip-rule="evenodd" d="M7.70312 8.51136C7.46289 8.52136 7.28125 8.57136 7.15625 8.65735C7.08594 8.70535 7.0332 8.76934 7 8.84333C6.96289 8.92533 6.94531 9.02532 6.94922 9.14131C6.95898 9.47928 7.13086 9.92124 7.46484 10.4292L7.46875 10.4372L8.55469 12.1991C8.99023 12.907 9.44531 13.6289 10.0117 14.1589C10.5566 14.6688 11.2168 15.0128 12.0898 15.0168C13.0352 15.0188 13.7285 14.6608 14.2891 14.1229C14.873 13.5629 15.334 12.795 15.7891 12.0291L17.0098 9.96924C17.2383 9.43728 17.3203 9.08131 17.2676 8.87333C17.2363 8.74934 17.1035 8.68735 16.875 8.67735C16.8262 8.67535 16.7773 8.67335 16.7266 8.67535C16.6719 8.67735 16.6152 8.68135 16.5566 8.68535C16.5234 8.68935 16.4922 8.68535 16.4629 8.67935C16.3535 8.68535 16.2422 8.67735 16.1289 8.66135L16.5469 6.76551C13.4434 7.26547 11.123 4.90566 7.8418 6.29355L8.07812 8.52736C7.94336 8.53336 7.81836 8.52736 7.70312 8.51136ZM9.66797 18.1046C9.07031 17.4086 9.01953 16.6787 9.66797 15.9067C10.4023 16.0967 11.0762 16.4187 11.6973 16.8547C11.8457 16.8047 12.0117 16.7927 12.1738 16.8167C12.832 16.3307 13.6797 16.1387 14.418 15.7768C15.293 16.6487 15.1992 17.4526 14.3379 18.2006C13.8184 18.0786 13.3262 17.8846 12.8574 17.6306C12.8516 17.7606 12.8203 17.9046 12.7578 18.0646L13.7148 21.4643C14.4551 19.8724 15.2246 18.2905 15.4004 16.4827C15.1074 16.1307 14.7969 15.6648 14.5273 15.2608C14.4473 15.1408 14.373 15.0288 14.3008 14.9228C13.709 15.3668 12.998 15.6448 12.0879 15.6408C11.1094 15.6388 10.3555 15.2808 9.73242 14.7408C9.72852 14.7468 9.72461 14.7548 9.7207 14.7608C9.61914 14.9048 9.50586 15.0748 9.38281 15.2588C9.15234 15.6048 8.89453 15.9927 8.64062 16.3187C8.96875 18.4145 9.75391 19.8884 10.4648 21.4623L11.4219 18.0626C11.2988 17.8506 11.2422 17.6666 11.2344 17.5066C10.7441 17.7926 10.2168 17.9786 9.66797 18.1046ZM14.6797 14.6049C14.7559 14.7168 14.8418 14.8448 14.9316 14.9788C15.0996 15.2308 15.2852 15.5088 15.4687 15.7628C16.7383 16.8847 20.3691 17.1166 21.7266 17.8926C22.1582 18.1386 22.5508 18.4545 22.8652 18.8785C23.3418 19.5224 23.6348 20.3664 23.7148 21.4363L24 22.7422C23.9297 23.4981 23.5117 23.9341 22.6855 24.0001H12.0898H1.31445C0.490234 23.9361 0.0703125 23.5001 0 22.7422L0.285156 21.4363C0.365234 20.3664 0.658203 19.5244 1.13477 18.8785C1.44922 18.4525 1.83984 18.1386 2.27344 17.8926C3.5625 17.1566 6.90039 16.9107 8.32227 15.9267C8.54492 15.6328 8.77344 15.2868 8.98047 14.9788C9.10742 14.7868 9.22656 14.6089 9.32617 14.4689C9.34375 14.4449 9.36328 14.4249 9.38672 14.4089C8.86133 13.8569 8.43945 13.189 8.03711 12.533L6.95312 10.7672C6.55664 10.1612 6.35156 9.60927 6.33789 9.15531C6.33203 8.94133 6.36719 8.74734 6.44336 8.57736C6.52344 8.39937 6.64844 8.24938 6.81641 8.13339C6.89453 8.0794 6.98242 8.0334 7.08008 7.9954C7.00977 7.03748 6.98438 5.83158 7.0293 4.82167C7.05273 4.58169 7.09766 4.34171 7.16211 4.10373C7.43945 3.08981 8.13477 2.27388 8.99414 1.71393C9.29688 1.51594 9.62891 1.35196 9.98047 1.22197C10.6035 0.989988 10.3008 0.0140691 10.9922 -0.00192958C12.6113 -0.0399264 15.2637 1.36196 16.2988 2.50786C16.9004 3.17581 17.2793 4.05773 17.3594 5.22763L17.291 8.1074C17.5918 8.20139 17.7832 8.39537 17.8633 8.71134C17.9512 9.06132 17.8555 9.55527 17.5664 10.2272C17.5605 10.2392 17.5547 10.2512 17.5488 10.2632L16.3125 12.347C15.8359 13.149 15.3535 13.9549 14.707 14.5729L14.6797 14.6049Z" fill="#757575"/>
</svg>
