<svg width="24" height="24" viewBox="0 0 24 24" fill="none" xmlns="http://www.w3.org/2000/svg">
<path d="M12.9502 14.1916C13.837 13.9152 19.4916 13.1572 19.785 13.5973C20.0984 14.0673 19.261 15.3716 19.0586 15.7765" fill="#757575"/>
<path d="M12.9502 14.1916C13.837 13.9152 19.4916 13.1572 19.785 13.5973C20.0984 14.0673 19.261 15.3716 19.0586 15.7765" stroke="#757575" stroke-opacity="0.9" stroke-linecap="round" stroke-linejoin="round"/>
<path d="M12.0254 15.3145C11.5828 16.2088 8.30383 22.1683 8.45947 22.4795C11.0772 22.1811 16.0693 22.3647 16.648 21.7861C16.9919 21.4421 17.065 20.7149 17.3414 20.3003" fill="#757575"/>
<path d="M12.0254 15.3145C11.5828 16.2088 8.30383 22.1683 8.45947 22.4795C11.0772 22.1811 16.0693 22.3647 16.648 21.7861C16.9919 21.4421 17.065 20.7149 17.3414 20.3003" stroke="#757575" stroke-opacity="0.9" stroke-linecap="round" stroke-linejoin="round"/>
<path d="M15.8551 15.1823C15.8289 15.0853 15.9232 15.0236 15.9542 14.9512" stroke="#757575" stroke-opacity="0.9" stroke-linecap="round" stroke-linejoin="round"/>
<path d="M5.02441 5.76592C7.09862 -0.35219 16.1179 2.49097 14.3305 8.84151C13.3615 12.2842 6.7718 13.9046 5.33993 8.43075" fill="#757575"/>
<path d="M5.02441 5.76592C7.09862 -0.35219 16.1179 2.49097 14.3305 8.84151C13.3615 12.2842 6.7718 13.9046 5.33993 8.43075" stroke="#757575" stroke-opacity="0.9" stroke-linecap="round" stroke-linejoin="round"/>
<path d="M12.178 7.80749C12.1357 7.48133 12.1201 7.28267 12.0498 6.99023" stroke="white" stroke-linecap="round" stroke-linejoin="round"/>
<path d="M10.2951 7.86855C10.2795 7.59387 10.2107 7.39227 10.1377 7.12695" stroke="white" stroke-linecap="round" stroke-linejoin="round"/>
<path d="M18.3322 16.7664C17.957 16.8456 17.6089 16.9884 17.3086 17.2286C14.611 19.3866 18.6945 20.1361 19.9501 17.6249C20.1952 17.1344 20.1322 16.5978 19.818 16.2051" fill="#757575"/>
<path d="M18.3322 16.7664C17.957 16.8456 17.6089 16.9884 17.3086 17.2286C14.611 19.3866 18.6945 20.1361 19.9501 17.6249C20.1952 17.1344 20.1322 16.5978 19.818 16.2051" stroke="#757575" stroke-opacity="0.9" stroke-linecap="round" stroke-linejoin="round"/>
<path d="M5.33594 14.8994C6.06508 11.8128 10.6199 14.0698 10.0245 16.4512C9.67096 17.8653 8.39566 16.1543 8.20852 15.5927" fill="#757575"/>
<path d="M5.33594 14.8994C6.06508 11.8128 10.6199 14.0698 10.0245 16.4512C9.67096 17.8653 8.39566 16.1543 8.20852 15.5927" stroke="#757575" stroke-opacity="0.9" stroke-linecap="round" stroke-linejoin="round"/>
<path d="M8.24156 16.1348C8.13656 17.5799 6.58106 16.9402 6.0293 16.1678L8.24156 16.1348Z" fill="#757575"/>
<path d="M8.24156 16.1348C8.13656 17.5799 6.58106 16.9402 6.0293 16.1678" stroke="#757575" stroke-opacity="0.9" stroke-linecap="round" stroke-linejoin="round"/>
</svg>
