<svg width="24" height="24" viewBox="0 0 24 24" fill="none" xmlns="http://www.w3.org/2000/svg">
<path d="M10.9949 4.68V8.56C10.9949 8.88127 10.9315 9.19938 10.8082 9.49606C10.685 9.79275 10.5044 10.0622 10.2767 10.2889C10.0491 10.5156 9.77892 10.6951 9.48173 10.8171C9.18454 10.9392 8.86618 11.0013 8.54491 11H4.68491C4.36451 11.0019 4.04702 10.9392 3.75147 10.8155C3.45591 10.6917 3.18838 10.5096 2.96491 10.28C2.73848 10.0547 2.5591 9.78657 2.43721 9.49129C2.31533 9.19601 2.25336 8.87944 2.25491 8.56V4.69C2.25491 4.0446 2.5106 3.42549 2.96603 2.96819C3.42146 2.51088 4.03952 2.25265 4.68491 2.25H8.55491C8.87498 2.25031 9.1918 2.3141 9.48704 2.43769C9.78228 2.56128 10.0501 2.74221 10.2749 2.97C10.5029 3.19264 10.684 3.45862 10.8076 3.75228C10.9313 4.04594 10.9949 4.36137 10.9949 4.68ZM21.7449 4.69V8.56C21.7397 9.2038 21.4824 9.81991 21.028 10.2761C20.5737 10.7323 19.9587 10.9922 19.3149 11H15.4349C14.7881 10.996 14.168 10.7416 13.7049 10.29C13.4786 10.0625 13.2994 9.79258 13.1776 9.49572C13.0558 9.19886 12.9937 8.88088 12.9949 8.56V4.69C12.9935 4.36969 13.0566 4.05236 13.1803 3.75689C13.3039 3.46141 13.4858 3.19382 13.7149 2.97C13.9397 2.74221 14.2075 2.56128 14.5028 2.43769C14.798 2.3141 15.1148 2.25031 15.4349 2.25H19.3049C19.9504 2.25523 20.568 2.51398 21.0245 2.97044C21.4809 3.4269 21.7397 4.04449 21.7449 4.69ZM21.7449 15.44V19.31C21.7397 19.9538 21.4824 20.5699 21.028 21.0261C20.5737 21.4823 19.9587 21.7422 19.3149 21.75H15.4349C14.784 21.7566 14.1562 21.5091 13.6849 21.06C13.4577 20.8331 13.278 20.5634 13.1561 20.2664C13.0342 19.9693 12.9726 19.651 12.9749 19.33V15.46C12.9736 15.1397 13.0367 14.8224 13.1603 14.5269C13.284 14.2315 13.4658 13.9639 13.6949 13.74C13.9198 13.5123 14.1876 13.3314 14.4828 13.2078C14.778 13.0842 15.0949 13.0204 15.4149 13.02H19.2849C19.9304 13.0252 20.548 13.284 21.0045 13.7404C21.4609 14.1969 21.7197 14.8145 21.7249 15.46L21.7449 15.44ZM10.9949 15.45V19.32C10.987 19.9655 10.7258 20.582 10.2674 21.0366C9.8091 21.4912 9.19045 21.7474 8.54491 21.75H4.68491C4.36543 21.7513 4.04885 21.6894 3.75343 21.5677C3.45801 21.4461 3.1896 21.2671 2.96369 21.0412C2.73778 20.8153 2.55884 20.5469 2.43719 20.2515C2.31554 19.9561 2.25359 19.6395 2.25491 19.32V15.45C2.25749 14.8045 2.5137 14.1858 2.96829 13.7275C3.42289 13.2691 4.03942 13.0079 4.68491 13H8.55491C9.20333 13.0056 9.82399 13.2639 10.2849 13.72C10.741 14.1801 10.9963 14.8021 10.9949 15.45Z" fill="#757575"/>
</svg>
