<svg width="14" height="14" viewBox="0 0 14 14" fill="none" xmlns="http://www.w3.org/2000/svg">
<g clip-path="url(#clip0_351_14153)">
<path d="M12.8591 6.78768L6.97949 12.7167C6.75136 12.9491 6.47918 13.1338 6.17887 13.2598C5.87856 13.3859 5.55613 13.4508 5.23044 13.4508C4.90474 13.4508 4.58232 13.3859 4.282 13.2598C3.98169 13.1338 3.70951 12.9491 3.48139 12.7167L1.72245 10.9281C1.26199 10.4604 1.00391 9.83042 1.00391 9.1741C1.00391 8.51779 1.26199 7.88779 1.72245 7.42011L7.98742 1.13538C8.17114 0.950137 8.38973 0.80311 8.63056 0.702774C8.8714 0.602439 9.12971 0.550781 9.39061 0.550781C9.65151 0.550781 9.90983 0.602439 10.1507 0.702774C10.3915 0.80311 10.6101 0.950137 10.7938 1.13538L11.4954 1.83698C11.6807 2.0207 11.8277 2.23929 11.928 2.48012C12.0284 2.72095 12.08 2.97927 12.08 3.24017C12.08 3.50107 12.0284 3.75939 11.928 4.00022C11.8277 4.24106 11.6807 4.45964 11.4954 4.64336L5.94192 10.2166C5.85005 10.3093 5.74076 10.3828 5.62034 10.4329C5.49993 10.4831 5.37077 10.5089 5.24032 10.5089C5.10987 10.5089 4.98071 10.4831 4.86029 10.4329C4.73988 10.3828 4.63058 10.3093 4.53872 10.2166L4.19286 9.86088C4.10024 9.76901 4.02673 9.65972 3.97656 9.5393C3.9264 9.41889 3.90057 9.28973 3.90057 9.15928C3.90057 9.02883 3.9264 8.89967 3.97656 8.77925C4.02673 8.65884 4.10024 8.54954 4.19286 8.45768L7.91825 4.76194" stroke="black" stroke-linecap="round" stroke-linejoin="round"/>
</g>
<defs>
<clipPath id="clip0_351_14153">
<rect width="14" height="14" fill="white"/>
</clipPath>
</defs>
</svg>
