<svg width="34" height="34" viewBox="0 0 34 34" fill="none" xmlns="http://www.w3.org/2000/svg">
<g clip-path="url(#clip0_339_15574)">
<path d="M6.90625 13.2482L17 19.8618L10.012 26.0416L0 19.1245L6.90625 13.2482ZM27.0529 25.2827V27.6245L17.0409 33.9778V33.9995L17.0204 33.9778L17 33.9995V33.9778L7.00841 27.6245V25.2827L10.012 27.3643L17 21.2062V21.1628L17.0204 21.1845L17.0409 21.1628V21.2062L24.0493 27.3643L27.0529 25.2827ZM10.012 0.476562L17 6.65641L6.90625 13.2482L0 7.39365L10.012 0.476562ZM27.0938 13.2482L34 19.1245L24.0084 26.0416L17 19.8618L27.0938 13.2482ZM24.0084 0.476562L34 7.39365L27.0938 13.2482L17 6.65641L24.0084 0.476562Z" fill="#51A5F8"/>
</g>
<defs>
<clipPath id="clip0_339_15574">
<rect width="34" height="34" fill="white"/>
</clipPath>
</defs>
</svg>
