<svg width="20" height="20" viewBox="0 0 20 20" fill="none" xmlns="http://www.w3.org/2000/svg">
<path d="M15.25 0.75H4.75C3.49022 0.75 2.28204 1.25045 1.39124 2.14124C0.500445 3.03204 0 4.24022 0 5.5V14.5C0 15.1238 0.122862 15.7415 0.361572 16.3177C0.600282 16.894 0.950164 17.4177 1.39124 17.8588C2.28204 18.7496 3.49022 19.25 4.75 19.25H15.25C16.509 19.2474 17.7156 18.7461 18.6058 17.8558C19.4961 16.9656 19.9974 15.759 20 14.5V5.5C19.9974 4.24103 19.4961 3.03439 18.6058 2.14416C17.7156 1.25394 16.509 0.752642 15.25 0.75ZM11.6 9.07C11.108 9.35059 10.5514 9.49815 9.985 9.49815C9.41861 9.49815 8.862 9.35059 8.37 9.07L1.52 5.14C1.60857 4.3453 1.98701 3.61115 2.58292 3.07797C3.17883 2.54478 3.95038 2.25 4.75 2.25H15.25C16.049 2.25219 16.8194 2.54773 17.4148 3.0805C18.0103 3.61327 18.3893 4.34616 18.48 5.14L11.6 9.07Z" fill="#757575"/>
</svg>
