<svg width="20" height="21" viewBox="0 0 20 21" fill="none" xmlns="http://www.w3.org/2000/svg">
<path d="M1.66699 6.33331L8.47109 11.0962C9.02207 11.4819 9.29756 11.6747 9.59721 11.7494C9.8619 11.8154 10.1387 11.8154 10.4034 11.7494C10.7031 11.6747 10.9786 11.4819 11.5296 11.0962L18.3337 6.33331M5.66699 17.1666H14.3337C15.7338 17.1666 16.4339 17.1666 16.9686 16.8942C17.439 16.6545 17.8215 16.272 18.0612 15.8016C18.3337 15.2668 18.3337 14.5668 18.3337 13.1666V7.83331C18.3337 6.43318 18.3337 5.73312 18.0612 5.19834C17.8215 4.72793 17.439 4.34548 16.9686 4.1058C16.4339 3.83331 15.7338 3.83331 14.3337 3.83331H5.66699C4.26686 3.83331 3.5668 3.83331 3.03202 4.1058C2.56161 4.34548 2.17916 4.72793 1.93948 5.19834C1.66699 5.73312 1.66699 6.43318 1.66699 7.83331V13.1666C1.66699 14.5668 1.66699 15.2668 1.93948 15.8016C2.17916 16.272 2.56161 16.6545 3.03202 16.8942C3.5668 17.1666 4.26686 17.1666 5.66699 17.1666Z" stroke="#51A5F8" stroke-width="1.66667" stroke-linecap="round" stroke-linejoin="round"/>
</svg>
