<svg width="24" height="25" viewBox="0 0 24 25" fill="none" xmlns="http://www.w3.org/2000/svg">
<path d="M12 18.6943C12.35 18.6943 12.646 18.5733 12.888 18.3313C13.13 18.0893 13.2507 17.7937 13.25 17.4443C13.2493 17.095 13.1283 16.799 12.887 16.5563C12.6457 16.3137 12.35 16.193 12 16.1943C11.65 16.1957 11.354 16.3167 11.112 16.5573C10.87 16.798 10.7493 17.0937 10.75 17.4443C10.7507 17.795 10.8717 18.091 11.113 18.3323C11.3543 18.5737 11.65 18.6943 12 18.6943ZM11.1 14.8443H12.95C12.95 14.2443 13.0167 13.8027 13.15 13.5193C13.2833 13.236 13.5667 12.8777 14 12.4443C14.5833 11.861 14.9957 11.3733 15.237 10.9813C15.4783 10.5893 15.5993 10.1437 15.6 9.64434C15.6 8.761 15.3 8.04867 14.7 7.50734C14.1 6.966 13.2917 6.695 12.275 6.69434C11.3583 6.69434 10.5793 6.91934 9.938 7.36934C9.29667 7.81934 8.85067 8.44434 8.6 9.24434L10.25 9.89434C10.3667 9.44434 10.6 9.082 10.95 8.80734C11.3 8.53267 11.7083 8.395 12.175 8.39434C12.625 8.39434 13 8.51534 13.3 8.75734C13.6 8.99934 13.75 9.32 13.75 9.71934C13.75 10.0027 13.6583 10.3027 13.475 10.6193C13.2917 10.936 12.9833 11.286 12.55 11.6693C12 12.1527 11.6207 12.6153 11.412 13.0573C11.2033 13.4993 11.0993 14.095 11.1 14.8443ZM5 21.6943C4.45 21.6943 3.97933 21.4987 3.588 21.1073C3.19667 20.716 3.00067 20.245 3 19.6943V5.69434C3 5.14434 3.196 4.67367 3.588 4.28234C3.98 3.891 4.45067 3.695 5 3.69434H19C19.55 3.69434 20.021 3.89034 20.413 4.28234C20.805 4.67434 21.0007 5.145 21 5.69434V19.6943C21 20.2443 20.8043 20.7153 20.413 21.1073C20.0217 21.4993 19.5507 21.695 19 21.6943H5Z" fill="#757575"/>
</svg>
