<svg width="24" height="18" viewBox="0 0 24 18" fill="none" xmlns="http://www.w3.org/2000/svg">
<g clip-path="url(#clip0_1378_8954)">
<path fill-rule="evenodd" clip-rule="evenodd" d="M21.8535 14.8805L20.5664 16.1718C20.2285 16.5108 19.6719 16.5108 19.334 16.1718L18.2969 15.1313C17.7617 15.4174 17.1875 15.6368 16.582 15.7779V17.1261C16.582 17.6061 16.1895 18 15.7109 18H13.8906C13.4121 18 13.0195 17.6061 13.0195 17.1261V15.6545C12.4258 15.4742 11.8652 15.2175 11.3516 14.8922L10.4004 15.8465C10.0625 16.1855 9.50586 16.1855 9.16797 15.8465L8.58594 15.2645L8.60156 15.2469L11.1543 12.3155C12.0879 13.4128 13.4785 14.1104 15.0293 14.1104C17.8418 14.1104 20.123 11.8217 20.123 9.00196C20.123 6.18027 17.8418 3.89157 15.0293 3.89157C13.6211 3.89157 12.3457 4.46571 11.4238 5.39255L10.4844 5.35728L8.10742 3.23318C8.13672 3.19203 8.16797 3.1548 8.20312 3.11757L9.49023 1.82626C9.82812 1.48726 10.3848 1.48726 10.7227 1.82626L11.7598 2.86675C12.2949 2.57871 12.8691 2.35924 13.4746 2.22012V0.871979C13.4785 0.39386 13.8711 0 14.3496 0H16.168C16.6465 0 17.0391 0.39386 17.0391 0.873939V2.34553C17.6328 2.5258 18.1934 2.78445 18.707 3.10777L19.6582 2.15349C19.9961 1.8145 20.5527 1.8145 20.8906 2.15349L22.1777 3.44481C22.5156 3.7838 22.5156 4.34226 22.1777 4.68125L21.1406 5.72175C21.4277 6.25865 21.6465 6.83475 21.7852 7.44219H23.1289C23.6055 7.44219 24 7.83605 24 8.31613V10.1424C24 10.6225 23.6074 11.0163 23.1289 11.0163H21.6641C21.4844 11.612 21.2285 12.1744 20.9043 12.6897L21.8555 13.644C22.1934 13.983 22.1934 14.5395 21.8535 14.8805ZM15.0449 7.3403C15.959 7.3403 16.6992 8.08295 16.6992 9C16.6992 9.91705 15.959 10.6597 15.0449 10.6597C14.1309 10.6597 13.3906 9.91705 13.3906 9C13.3906 8.08295 14.1328 7.3403 15.0449 7.3403ZM11.7461 8.89811L7.25195 14.0614L7.10156 11.6395C4.0293 11.1986 1.67578 12.0451 0 14.4749C0.0195312 9.69366 3.11719 7.19334 6.80078 6.80928L6.64648 4.33834L11.7461 8.89811Z" fill="#757575"/>
</g>
<defs>
<clipPath id="clip0_1378_8954">
<rect width="24" height="18" fill="white"/>
</clipPath>
</defs>
</svg>
