<svg width="20" height="21" viewBox="0 0 20 21" fill="none" xmlns="http://www.w3.org/2000/svg">
<path d="M15.8333 9.66669H4.16667C3.24619 9.66669 2.5 10.4129 2.5 11.3334V17.1667C2.5 18.0872 3.24619 18.8334 4.16667 18.8334H15.8333C16.7538 18.8334 17.5 18.0872 17.5 17.1667V11.3334C17.5 10.4129 16.7538 9.66669 15.8333 9.66669Z" stroke="#51A5F8" stroke-width="1.67" stroke-linecap="round" stroke-linejoin="round"/>
<path d="M5.83301 9.66669V6.33335C5.83301 5.22828 6.27199 4.16848 7.0534 3.38708C7.8348 2.60567 8.89461 2.16669 9.99967 2.16669C11.1047 2.16669 12.1646 2.60567 12.946 3.38708C13.7274 4.16848 14.1663 5.22828 14.1663 6.33335V9.66669" stroke="#51A5F8" stroke-width="1.67" stroke-linecap="round" stroke-linejoin="round"/>
</svg>
