<svg width="5" height="18" viewBox="0 0 5 18" fill="none" xmlns="http://www.w3.org/2000/svg">
<path d="M2.9375 11C4.04207 11 4.9375 10.1046 4.9375 9C4.9375 7.89543 4.04207 7 2.9375 7C1.83293 7 0.9375 7.89543 0.9375 9C0.9375 10.1046 1.83293 11 2.9375 11Z" fill="#8D8D8D"/>
<path d="M2.9375 4C4.04207 4 4.9375 3.10457 4.9375 2C4.9375 0.89543 4.04207 0 2.9375 0C1.83293 0 0.9375 0.89543 0.9375 2C0.9375 3.10457 1.83293 4 2.9375 4Z" fill="#8D8D8D"/>
<path d="M2.9375 18C4.04207 18 4.9375 17.1046 4.9375 16C4.9375 14.8954 4.04207 14 2.9375 14C1.83293 14 0.9375 14.8954 0.9375 16C0.9375 17.1046 1.83293 18 2.9375 18Z" fill="#8D8D8D"/>
</svg>
