<svg width="24" height="24" viewBox="0 0 24 24" fill="none" xmlns="http://www.w3.org/2000/svg">
<g clip-path="url(#clip0_339_8571)">
<path d="M12.5111 11.1186C15.5825 11.1186 18.0688 8.62843 18.0688 5.55891C18.0688 2.48844 15.5825 0 12.5111 0C9.44097 0 6.95215 2.48863 6.95215 5.55891C6.95215 8.62862 9.44097 11.1186 12.5111 11.1186Z" fill="white"/>
<path d="M13.9424 11.3426L12.5581 12.737L11.2157 11.328C11.2111 11.3291 11.2061 11.3291 11.203 11.3303C10.979 11.384 10.0282 11.6866 8.79464 12.5713C8.7837 12.579 8.53319 12.7527 8.41589 12.8262C8.18304 12.9733 7.83539 13.1862 7.4148 13.3872C6.9967 13.5914 6.50143 13.7763 6.0507 13.873C5.82821 13.9172 5.62722 13.9293 5.46578 13.9241C5.29896 13.921 5.20298 13.8849 5.10124 13.8404C5.04653 13.8277 5.00603 13.7763 4.94613 13.7479C4.89929 13.6857 4.83153 13.6559 4.78066 13.5676C4.7534 13.5286 4.72211 13.496 4.69293 13.4538L4.61403 13.3077C4.55299 13.2209 4.5144 13.0915 4.46507 12.9802C4.41113 12.8731 4.38329 12.7322 4.34317 12.6088C4.30132 12.4865 4.2733 12.3523 4.24892 12.2177C4.1871 11.959 4.15812 11.6889 4.12798 11.4408C4.09093 11.1963 4.09323 10.9508 4.075 10.7436C4.07442 10.7377 4.07481 10.7325 4.07442 10.7265C4.1921 10.558 4.352 10.406 4.54646 10.2649C4.74073 10.1253 4.89353 9.89303 4.99489 9.67093C5.38919 8.79499 5.56061 8.29339 5.84357 7.37464C5.96297 6.98764 5.24925 6.55937 4.78354 7.65472C4.58658 8.05151 4.67258 8.09221 4.47236 8.48746L4.40076 8.62203C4.40076 8.62203 4.35949 8.2404 4.35411 8.12503C4.29211 6.8024 4.23548 6.0929 4.17194 4.77026C4.15466 4.40341 4.00186 4.24005 3.71871 4.25963C3.44919 4.27902 3.33075 4.44507 3.34515 4.80155C3.37413 5.52353 3.40869 5.63141 3.43787 6.35282C3.4515 6.62483 3.2745 6.57319 3.27566 6.35166C3.22882 5.36765 3.18409 5.15035 3.14454 4.16615C3.13341 3.89893 3.02226 3.72367 2.74833 3.6943C2.48361 3.66627 2.30278 3.88607 2.31622 4.22066C2.35557 5.17185 2.4026 5.35613 2.44176 6.30751C2.45558 6.58893 2.28243 6.54459 2.28186 6.33304C2.24673 5.57901 2.22446 5.43714 2.16994 4.68445C2.15938 4.5328 2.06724 4.33354 1.94803 4.25407C1.6572 4.06037 1.33931 4.30724 1.35275 4.70883C1.38077 5.55098 1.42627 5.77942 1.46101 6.6208C1.48194 6.83676 1.31282 6.89473 1.3036 6.64326C1.2775 6.10748 1.25734 6.18465 1.22797 5.64946C1.21453 5.40547 1.07555 5.2661 0.830219 5.2567C0.582392 5.24767 0.445905 5.39184 0.405593 5.62488C0.388316 5.72029 0.39753 5.82107 0.401945 5.91878C0.458383 7.18729 0.492361 7.844 0.586039 9.10962C0.619441 9.55287 0.672616 9.86231 0.745178 10.2201C0.817741 10.578 1.01738 10.7467 1.06518 10.9239C1.05405 11.1289 1.04061 11.3443 1.04867 11.5913C1.05309 11.9196 1.05501 12.2744 1.1005 12.6692C1.11625 12.8635 1.13698 13.0651 1.18036 13.2801C1.22163 13.4939 1.24659 13.706 1.31858 13.9381C1.38538 14.1679 1.43683 14.3965 1.54509 14.6419C1.59481 14.7628 1.64492 14.8845 1.6954 15.0066C1.7553 15.13 1.82786 15.2548 1.89716 15.3788C2.02366 15.6276 2.22638 15.8733 2.41393 16.1136C2.63699 16.3427 2.86159 16.5751 3.14032 16.7588C3.67552 17.1412 4.31419 17.3977 4.89929 17.4948C5.48728 17.6002 6.03803 17.601 6.53061 17.554C6.66287 17.5392 6.8247 17.5217 6.9514 17.5023L6.95504 23.9999H18.4503V21.5119C18.7039 22.2294 18.9429 23.0578 19.1692 23.9999H23.6039C22.2926 17.9172 18.8607 12.9641 13.9424 11.3426ZM12.5708 23.7387H12.5462L11.205 21.9041L12.5462 12.9435H12.5708L13.913 21.9041L12.5708 23.7387Z" fill="white"/>
</g>
<defs>
<clipPath id="clip0_339_8571">
<rect width="24" height="24" fill="white"/>
</clipPath>
</defs>
</svg>
