<svg width="24" height="24" viewBox="0 0 24 24" fill="none" xmlns="http://www.w3.org/2000/svg">
<path d="M3 6.75C3 5.75544 3.39509 4.80161 4.09835 4.09835C4.80161 3.39509 5.75544 3 6.75 3H17.25C18.2446 3 19.1984 3.39509 19.9016 4.09835C20.6049 4.80161 21 5.75544 21 6.75V17.25C21 18.2446 20.6049 19.1984 19.9016 19.9016C19.1984 20.6049 18.2446 21 17.25 21H6.75C5.75544 21 4.80161 20.6049 4.09835 19.9016C3.39509 19.1984 3 18.2446 3 17.25V6.75ZM12.75 15.75C12.75 15.9489 12.829 16.1397 12.9697 16.2803C13.1103 16.421 13.3011 16.5 13.5 16.5H16.875C17.0739 16.5 17.2647 16.421 17.4053 16.2803C17.546 16.1397 17.625 15.9489 17.625 15.75C17.625 15.5511 17.546 15.3603 17.4053 15.2197C17.2647 15.079 17.0739 15 16.875 15H13.5C13.3011 15 13.1103 15.079 12.9697 15.2197C12.829 15.3603 12.75 15.5511 12.75 15.75ZM13.5 9C13.3011 9 13.1103 9.07902 12.9697 9.21967C12.829 9.36032 12.75 9.55109 12.75 9.75C12.75 9.94891 12.829 10.1397 12.9697 10.2803C13.1103 10.421 13.3011 10.5 13.5 10.5H16.875C17.0739 10.5 17.2647 10.421 17.4053 10.2803C17.546 10.1397 17.625 9.94891 17.625 9.75C17.625 9.55109 17.546 9.36032 17.4053 9.21967C17.2647 9.07902 17.0739 9 16.875 9H13.5ZM11.031 13.719C10.9613 13.6492 10.8786 13.5937 10.7875 13.5559C10.6963 13.5181 10.5987 13.4987 10.5 13.4987C10.4013 13.4987 10.3037 13.5181 10.2125 13.5559C10.1214 13.5937 10.0387 13.6492 9.969 13.719L8.25 15.4395L7.659 14.847C7.51837 14.7062 7.32755 14.627 7.12853 14.6268C6.92951 14.6267 6.73858 14.7056 6.59775 14.8463C6.45692 14.9869 6.37772 15.1777 6.37758 15.3767C6.37744 15.5757 6.45637 15.7667 6.597 15.9075L7.719 17.031C7.78867 17.1008 7.87143 17.1563 7.96255 17.1941C8.05367 17.2319 8.15135 17.2513 8.25 17.2513C8.34865 17.2513 8.44633 17.2319 8.53745 17.1941C8.62857 17.1563 8.71133 17.1008 8.781 17.031L11.031 14.781C11.1008 14.7113 11.1563 14.6286 11.1941 14.5374C11.2319 14.4463 11.2513 14.3487 11.2513 14.25C11.2513 14.1513 11.2319 14.0537 11.1941 13.9626C11.1563 13.8714 11.1008 13.7887 11.031 13.719ZM11.031 8.781C11.1007 8.71127 11.156 8.62848 11.1938 8.53738C11.2315 8.44627 11.2509 8.34862 11.2509 8.25C11.2509 8.15138 11.2315 8.05373 11.1938 7.96262C11.156 7.87152 11.1007 7.78873 11.031 7.719C10.9613 7.64927 10.8785 7.59395 10.7874 7.55621C10.6963 7.51848 10.5986 7.49905 10.5 7.49905C10.4014 7.49905 10.3037 7.51848 10.2126 7.55621C10.1215 7.59395 10.0387 7.64927 9.969 7.719L8.25 9.4395L7.659 8.847C7.51817 8.70617 7.32716 8.62705 7.128 8.62705C6.92884 8.62705 6.73783 8.70617 6.597 8.847C6.45617 8.98783 6.37705 9.17884 6.37705 9.378C6.37705 9.57716 6.45617 9.76817 6.597 9.909L7.719 11.031C7.78867 11.1008 7.87143 11.1563 7.96255 11.1941C8.05367 11.2319 8.15135 11.2513 8.25 11.2513C8.34865 11.2513 8.44633 11.2319 8.53745 11.1941C8.62857 11.1563 8.71133 11.1008 8.781 11.031L11.031 8.781Z" fill="#757575"/>
</svg>
