<svg width="22" height="22" viewBox="0 0 22 22" fill="none" xmlns="http://www.w3.org/2000/svg">
<path d="M17.6047 7.18457C19.4455 7.18457 20.9378 5.84142 20.9378 4.18457C20.9378 2.52772 19.4455 1.18457 17.6047 1.18457C15.7638 1.18457 14.2715 2.52772 14.2715 4.18457C14.2715 5.84142 15.7638 7.18457 17.6047 7.18457Z" stroke="#51A5F8" stroke-width="1.25" stroke-linecap="round" stroke-linejoin="round"/>
<path d="M4.27067 14.1836C6.11153 14.1836 7.60385 12.8404 7.60385 11.1836C7.60385 9.52674 6.11153 8.18359 4.27067 8.18359C2.42981 8.18359 0.9375 9.52674 0.9375 11.1836C0.9375 12.8404 2.42981 14.1836 4.27067 14.1836Z" stroke="#51A5F8" stroke-width="1.25" stroke-linecap="round" stroke-linejoin="round"/>
<path d="M17.6047 21.1846C19.4455 21.1846 20.9378 19.8414 20.9378 18.1846C20.9378 16.5277 19.4455 15.1846 17.6047 15.1846C15.7638 15.1846 14.2715 16.5277 14.2715 18.1846C14.2715 19.8414 15.7638 21.1846 17.6047 21.1846Z" stroke="#51A5F8" stroke-width="1.25" stroke-linecap="round" stroke-linejoin="round"/>
<path d="M7.14844 12.6963L14.737 16.6763" stroke="#51A5F8" stroke-width="1.25" stroke-linecap="round" stroke-linejoin="round"/>
<path d="M14.7259 5.69629L7.14844 9.67629" stroke="#51A5F8" stroke-width="1.25" stroke-linecap="round" stroke-linejoin="round"/>
</svg>
