<svg width="14" height="14" viewBox="0 0 14 14" fill="none" xmlns="http://www.w3.org/2000/svg">
<g clip-path="url(#clip0_351_14143)">
<path d="M7 13.5C10.5899 13.5 13.5 10.5899 13.5 7C13.5 3.41015 10.5899 0.5 7 0.5C3.41015 0.5 0.5 3.41015 0.5 7C0.5 10.5899 3.41015 13.5 7 13.5Z" stroke="black" stroke-linecap="round" stroke-linejoin="round"/>
<path d="M3.69922 8C4.19922 9.8 6.19922 10.9 7.99922 10.4C9.09922 10 9.99922 9.1 10.2993 8" stroke="black" stroke-linecap="round" stroke-linejoin="round"/>
<path d="M4.75 5.5C4.61193 5.5 4.5 5.38807 4.5 5.25C4.5 5.11193 4.61193 5 4.75 5" stroke="black" stroke-linecap="round" stroke-linejoin="round"/>
<path d="M4.75 5.5C4.88807 5.5 5 5.38807 5 5.25C5 5.11193 4.88807 5 4.75 5" stroke="black" stroke-linecap="round" stroke-linejoin="round"/>
<path d="M9.25 5.5C9.11193 5.5 9 5.38807 9 5.25C9 5.11193 9.11193 5 9.25 5" stroke="black" stroke-linecap="round" stroke-linejoin="round"/>
<path d="M9.25 5.5C9.38807 5.5 9.5 5.38807 9.5 5.25C9.5 5.11193 9.38807 5 9.25 5" stroke="black" stroke-linecap="round" stroke-linejoin="round"/>
</g>
<defs>
<clipPath id="clip0_351_14143">
<rect width="14" height="14" fill="white"/>
</clipPath>
</defs>
</svg>
