<svg width="24" height="24" viewBox="0 0 24 24" fill="none" xmlns="http://www.w3.org/2000/svg">
<g clip-path="url(#clip0_1378_8934)">
<path d="M3.69231 0V17.5385C3.69231 18.0508 3.28154 18.4615 2.76923 18.4615C2.25692 18.4615 1.84615 18.0508 1.84615 17.5385V6.46154H2.76923V4.61538H0V17.5385C0 19.0569 1.25077 20.3077 2.76923 20.3077H12C11.8154 19.7538 11.7111 19.1077 11.7111 18.4615H5.36677C5.472 18.1698 5.53938 17.8643 5.53938 17.5385V1.84615H20.3086V12C20.9548 12.1846 21.6009 12.4615 22.1548 12.9231V0H3.69231ZM7.38462 3.69231V7.38462H18.4615V3.69231H7.38462ZM7.38462 9.23077V11.0769H12V9.23077H7.38462ZM13.8462 9.23077V11.0769H18.4615V9.23077H13.8462ZM7.38462 12V13.8462H12V12H7.38462ZM18.4615 12.9231C15.3932 12.9231 12.9231 15.3932 12.9231 18.4615C12.9231 21.5298 15.3932 24 18.4615 24V22.1538C16.3606 22.1538 14.7692 20.5625 14.7692 18.4615C14.7692 16.3606 16.3606 14.7692 18.4615 14.7692C20.5625 14.7692 22.1538 16.3606 22.1538 18.4615C22.1538 19.2628 21.9258 20.0031 21.5188 20.5966L20.3077 19.3846L19.8462 23.5385L24 23.0769L22.8462 21.9231C23.6132 20.9594 24 19.7326 24 18.4615C24 15.3932 21.5298 12.9231 18.4615 12.9231ZM7.38462 14.7692V16.6154H12V14.7692H7.38462Z" fill="#757575"/>
</g>
<defs>
<clipPath id="clip0_1378_8934">
<rect width="24" height="24" fill="white"/>
</clipPath>
</defs>
</svg>
