<svg width="24" height="24" viewBox="0 0 24 24" fill="none" xmlns="http://www.w3.org/2000/svg">
<g clip-path="url(#clip0_1378_8944)">
<path fill-rule="evenodd" clip-rule="evenodd" d="M7.70312 8.51209C7.46289 8.52209 7.28125 8.57209 7.15625 8.65808C7.08594 8.70608 7.0332 8.77007 7 8.84407C6.96289 8.92606 6.94531 9.02605 6.94922 9.14204C6.95898 9.48001 7.13086 9.92198 7.46484 10.4299L7.46875 10.4379L8.55469 12.1998C8.99023 12.9077 9.44531 13.6297 10.0117 14.1596C10.5566 14.6696 11.2168 15.0136 12.0898 15.0176C13.0352 15.0196 13.7285 14.6616 14.2891 14.1236C14.873 13.5637 15.334 12.7957 15.7891 12.0298L17.0098 9.96997C17.2383 9.43802 17.3203 9.08205 17.2676 8.87406C17.2363 8.75007 17.1035 8.68808 16.875 8.67808C16.8262 8.67608 16.7773 8.67408 16.7266 8.67608C16.6719 8.67808 16.6152 8.68208 16.5566 8.68608C16.5234 8.69008 16.4922 8.68608 16.4629 8.68008C16.3535 8.68608 16.2422 8.67808 16.1289 8.66208L16.5469 6.76624C13.4434 7.2662 11.123 4.90639 7.8418 6.29428L8.07812 8.52809C7.94336 8.53409 7.81836 8.52809 7.70312 8.51209ZM9.66797 18.1053C9.07031 17.4094 9.01953 16.6794 9.66797 15.9075C10.4023 16.0975 11.0762 16.4194 11.6973 16.8554C11.8457 16.8054 12.0117 16.7934 12.1738 16.8174C12.832 16.3314 13.6797 16.1395 14.418 15.7775C15.293 16.6494 15.1992 17.4534 14.3379 18.2013C13.8184 18.0793 13.3262 17.8853 12.8574 17.6313C12.8516 17.7613 12.8203 17.9053 12.7578 18.0653L13.7148 21.465C14.4551 19.8731 15.2246 18.2913 15.4004 16.4834C15.1074 16.1315 14.7969 15.6655 14.5273 15.2615C14.4473 15.1415 14.373 15.0296 14.3008 14.9236C13.709 15.3675 12.998 15.6455 12.0879 15.6415C11.1094 15.6395 10.3555 15.2815 9.73242 14.7416C9.72852 14.7476 9.72461 14.7556 9.7207 14.7616C9.61914 14.9056 9.50586 15.0755 9.38281 15.2595C9.15234 15.6055 8.89453 15.9935 8.64062 16.3194C8.96875 18.4153 9.75391 19.8891 10.4648 21.463L11.4219 18.0633C11.2988 17.8513 11.2422 17.6673 11.2344 17.5073C10.7441 17.7933 10.2168 17.9793 9.66797 18.1053ZM14.6797 14.6056C14.7559 14.7176 14.8418 14.8456 14.9316 14.9796C15.0996 15.2315 15.2852 15.5095 15.4687 15.7635C16.7383 16.8854 20.3691 17.1174 21.7266 17.8933C22.1582 18.1393 22.5508 18.4553 22.8652 18.8792C23.3418 19.5232 23.6348 20.3671 23.7148 21.437L24 22.7429C23.9297 23.4988 23.5117 23.9348 22.6855 24.0008H12.0898H1.31445C0.490234 23.9368 0.0703125 23.5008 0 22.7429L0.285156 21.437C0.365234 20.3671 0.658203 19.5252 1.13477 18.8792C1.44922 18.4533 1.83984 18.1393 2.27344 17.8933C3.5625 17.1574 6.90039 16.9114 8.32227 15.9275C8.54492 15.6335 8.77344 15.2875 8.98047 14.9796C9.10742 14.7876 9.22656 14.6096 9.32617 14.4696C9.34375 14.4456 9.36328 14.4256 9.38672 14.4096C8.86133 13.8576 8.43945 13.1897 8.03711 12.5338L6.95312 10.7679C6.55664 10.162 6.35156 9.61 6.33789 9.15604C6.33203 8.94206 6.36719 8.74807 6.44336 8.57809C6.52344 8.4001 6.64844 8.25012 6.81641 8.13412C6.89453 8.08013 6.98242 8.03413 7.08008 7.99614C7.00977 7.03822 6.98438 5.83232 7.0293 4.8224C7.05273 4.58242 7.09766 4.34244 7.16211 4.10446C7.43945 3.09055 8.13477 2.27461 8.99414 1.71466C9.29688 1.51668 9.62891 1.35269 9.98047 1.2227C10.6035 0.99072 10.3008 0.0148015 10.9922 -0.00119716C12.6113 -0.039194 15.2637 1.36269 16.2988 2.50859C16.9004 3.17654 17.2793 4.05846 17.3594 5.22837L17.291 8.10813C17.5918 8.20212 17.7832 8.3961 17.8633 8.71208C17.9512 9.06205 17.8555 9.55601 17.5664 10.228C17.5605 10.2399 17.5547 10.2519 17.5488 10.2639L16.3125 12.3478C15.8359 13.1497 15.3535 13.9556 14.707 14.5736L14.6797 14.6056Z" fill="#757575"/>
</g>
<defs>
<clipPath id="clip0_1378_8944">
<rect width="24" height="24" fill="white"/>
</clipPath>
</defs>
</svg>
