<svg width="24" height="24" viewBox="0 0 24 24" fill="none" xmlns="http://www.w3.org/2000/svg">
<path d="M23.5752 2.8884L20.8077 5.6557L18.9287 4.87913L18.2092 3.05721L20.9767 0.289777C19.6819 -0.0833716 18.2329 0.222585 17.2128 1.24262C16.1928 2.26266 15.8964 3.66387 16.2408 4.94203L16.2243 4.95848C16.3941 5.58021 16.7201 6.16793 17.2084 6.65624C17.8138 7.26166 18.5717 7.6178 19.3583 7.73366L19.3721 7.71983C20.524 7.88532 21.7358 7.53803 22.622 6.65182C23.6422 5.63164 23.9483 4.18288 23.575 2.8884H23.5752Z" fill="#757575"/>
<path d="M2.75168 23.7119L5.51898 20.9446L4.74241 19.0656L2.92049 18.3461L0.153058 21.1135C-0.220091 19.8188 0.0858667 18.3697 1.10591 17.3496C2.12595 16.3294 3.52715 16.0331 4.80531 16.3775L4.82176 16.3611C5.44349 16.5308 6.03121 16.8568 6.51953 17.3451C7.12494 17.9506 7.48108 18.7085 7.59694 19.495L7.58311 19.5088C7.7486 20.6608 7.40131 21.8726 6.5151 22.7588C5.49492 23.7789 4.04616 24.085 2.75168 23.7118V23.7119Z" fill="#757575"/>
<path d="M17.3118 4.00367L3.99121 17.3242L6.54022 19.8732L19.8608 6.55267L17.3118 4.00367Z" fill="#757575"/>
<path d="M21.0952 14.8982C21.2922 14.9372 21.4837 14.8091 21.5227 14.6122L21.7858 13.2858C21.8249 13.0888 21.6969 12.8973 21.4999 12.8583L20.6815 12.696C20.7251 12.1531 20.7222 11.6151 20.6678 11.0878L21.4748 10.9059C21.6707 10.8618 21.7938 10.6671 21.7497 10.4712L21.4524 9.15184C21.4082 8.95607 21.2137 8.83316 21.0176 8.87713L20.2026 9.06073C20.1346 8.86856 20.0601 8.67915 19.9799 8.49237C19.9634 8.49251 19.9473 8.49472 19.9308 8.49472H19.9307C19.8355 8.49472 19.7402 8.49168 19.6446 8.48573L19.6297 8.50052L19.2511 8.46057C19.1779 8.44979 19.1061 8.43402 19.0339 8.41992L18.4092 9.04483C19.0057 10.3632 19.217 11.8706 18.9138 13.3982C18.8495 13.7225 18.757 14.0335 18.6526 14.3376L19.9293 15.6143C20.0574 15.329 20.1768 15.0383 20.2749 14.7354L21.0955 14.8982H21.0952Z" fill="#757575"/>
<path d="M4.81451 10.6011C5.01139 9.60873 5.40582 8.70649 5.94585 7.92341L3.93259 5.91016L3.19901 7.00236C3.08703 7.16924 3.1314 7.39514 3.29814 7.50713L3.99079 7.97249C3.77857 8.38767 3.59525 8.82234 3.4487 9.2772L2.63023 9.11489C2.43322 9.07576 2.24188 9.20365 2.20275 9.40094L1.93965 10.7272C1.90053 10.9242 2.02855 11.1157 2.22556 11.1547L3.04596 11.3176C3.00338 11.8599 3.00587 12.3976 3.06103 12.9242L2.25072 13.1068C2.05482 13.1512 1.93177 13.3457 1.97587 13.5417L2.27312 14.8609C2.31736 15.0566 2.51189 15.1798 2.70793 15.1356L3.52985 14.9506C3.52985 14.9506 3.52958 14.9494 3.5293 14.9489C3.59635 15.1379 3.66949 15.3243 3.74829 15.5078C3.76198 15.5076 3.77525 15.5058 3.78894 15.5058C4.04983 15.5058 4.3103 15.5278 4.56731 15.5716L4.58529 15.5532L4.69547 15.578L5.31914 14.9545C4.72271 13.6361 4.51146 12.1287 4.81465 10.6011H4.81451Z" fill="#757575"/>
<path d="M15.4782 20.0639L14.203 18.7887C13.0394 19.1908 11.7598 19.306 10.465 19.049C9.91586 18.9401 9.39768 18.7656 8.90826 18.5449L8.28418 19.169C8.29828 19.2413 8.31418 19.3129 8.32497 19.3865L8.37875 19.7511L8.35068 19.7793C8.35787 19.8914 8.35538 20.0024 8.35441 20.1134C8.60853 20.2237 8.86761 20.3261 9.13541 20.4127H9.13514L8.97393 21.2247C8.93481 21.4219 9.06283 21.6132 9.25984 21.6523L10.5849 21.9151C10.7819 21.9543 10.9732 21.8264 11.0124 21.6291L11.1736 20.817H11.1733C11.6203 20.8525 12.0625 20.8498 12.4996 20.8184L12.6592 21.6478C12.6973 21.8452 12.8879 21.9742 13.0851 21.9362L14.413 21.6807C14.6103 21.6428 14.7394 21.452 14.7014 21.2548L14.5431 20.4325C14.8638 20.3302 15.1735 20.2022 15.4782 20.0638V20.0639Z" fill="#757575"/>
<path d="M19.6874 15.0359L18.2023 15.2177C17.828 16.1879 17.2115 17.0868 16.3537 17.8044C15.9899 18.1088 15.6017 18.3592 15.2001 18.567L15.2551 19.2971C15.308 19.325 15.3614 19.3514 15.4133 19.3821L15.6706 19.5341L15.6732 19.567C15.7473 19.6199 15.8155 19.6785 15.8845 19.7362C16.0903 19.6261 16.2939 19.5086 16.4923 19.3774L16.4921 19.3776L16.9139 19.9005C17.0164 20.0274 17.2051 20.0417 17.3357 19.9325L18.2134 19.198C18.3439 19.0888 18.3668 18.8976 18.2643 18.7706L17.8424 18.2476L17.8422 18.2478C18.105 17.9727 18.3413 17.6811 18.5569 17.3782L19.1623 17.6994C19.3064 17.7759 19.4898 17.717 19.5721 17.5681L20.1268 16.5655C20.2092 16.4166 20.1592 16.2338 20.0153 16.1575L19.415 15.8389C19.5235 15.5759 19.61 15.3069 19.6873 15.0359L19.6874 15.0359Z" fill="#757575"/>
<path d="M7.79045 6.08438C9.33212 5.02286 11.2822 4.55764 13.2632 4.95083C13.8122 5.05978 14.3304 5.23425 14.8197 5.45463L15.4304 4.84396L15.4022 4.74082L15.4367 4.70612C15.3906 4.43404 15.3773 4.16099 15.38 3.88918C15.1239 3.77774 14.863 3.67433 14.5928 3.58723H14.5931L14.7543 2.77485C14.7934 2.57784 14.6654 2.38636 14.4684 2.34723L13.1434 2.08441C12.9464 2.04528 12.7549 2.17344 12.7159 2.37046L12.5547 3.18284H12.555C12.1058 3.14703 11.6611 3.14993 11.2219 3.18173C11.2223 3.18187 11.2229 3.18173 11.2234 3.18173L11.0662 2.36534C11.0282 2.16833 10.8376 2.03892 10.6404 2.07694L9.31248 2.33257C9.11533 2.37046 8.98607 2.56125 9.02409 2.75826L9.18004 3.56926C8.71758 3.71677 8.27143 3.90563 7.84201 4.12546L7.37969 3.43405C7.26812 3.26703 7.04221 3.2221 6.8752 3.33395L5.77539 4.06946L7.79045 6.08438Z" fill="#757575"/>
</svg>
