<svg width="44" height="44" viewBox="0 0 44 44" fill="none" xmlns="http://www.w3.org/2000/svg">
<g filter="url(#filter0_d_1224_1430)">
<path d="M2.5 9C2.5 4.85786 5.85786 1.5 10 1.5H34C38.1421 1.5 41.5 4.85786 41.5 9V33C41.5 37.1421 38.1421 40.5 34 40.5H10C5.85786 40.5 2.5 37.1421 2.5 33V9Z" stroke="#51A5F8" shape-rendering="crispEdges"/>
<path d="M18.666 24.3333L21.9993 21M21.9993 21L25.3327 24.3333M21.9993 21V28.5M28.666 24.9524C29.6839 24.1117 30.3327 22.8399 30.3327 21.4167C30.3327 18.8854 28.2807 16.8333 25.7493 16.8333C25.5673 16.8333 25.3969 16.7383 25.3044 16.5814C24.2177 14.7374 22.2114 13.5 19.916 13.5C16.4642 13.5 13.666 16.2982 13.666 19.75C13.666 21.4718 14.3622 23.0309 15.4885 24.1613" stroke="#51A5F8" stroke-width="1.66667" stroke-linecap="round" stroke-linejoin="round"/>
</g>
<defs>
<filter id="filter0_d_1224_1430" x="0" y="0" width="44" height="44" filterUnits="userSpaceOnUse" color-interpolation-filters="sRGB">
<feFlood flood-opacity="0" result="BackgroundImageFix"/>
<feColorMatrix in="SourceAlpha" type="matrix" values="0 0 0 0 0 0 0 0 0 0 0 0 0 0 0 0 0 0 127 0" result="hardAlpha"/>
<feOffset dy="1"/>
<feGaussianBlur stdDeviation="1"/>
<feComposite in2="hardAlpha" operator="out"/>
<feColorMatrix type="matrix" values="0 0 0 0 0.0627451 0 0 0 0 0.0941176 0 0 0 0 0.156863 0 0 0 0.05 0"/>
<feBlend mode="normal" in2="BackgroundImageFix" result="effect1_dropShadow_1224_1430"/>
<feBlend mode="normal" in="SourceGraphic" in2="effect1_dropShadow_1224_1430" result="shape"/>
</filter>
</defs>
</svg>
